{"title":"TNA.One.Night.Only.September.2016.PDTV.XviD-FICEK9","uid":16025317,"size":1880361288,"categoryP":"video","categoryS":"tv_shows","magnet":"?xt=urn:btih:ec6be5d49e951454553a367d826cd6dc64801dab&amp;dn=TNA.One.Night.Only.September.2016.PDTV.XviD-FICEK9&amp;tr=udp%3A%2F%2Ftracker.leechers-paradise.org%3A6969&amp;tr=udp%3A%2F%2Fzer0day.ch%3A1337&amp;tr=udp%3A%2F%2Fopen.demonii.com%3A1337&amp;tr=udp%3A%2F%2Ftracker.coppersurfer.tk%3A6969&amp;tr=udp%3A%2F%2Fexodus.desync.com%3A6969","seeders":0,"leechers":1,"uploader":"FICEK9","files":2,"time":1476381694,"description":"\n   General\r\n      Complete name : TNA.One.Night.Only.September.2016.PDTV.XviD-FICEK9.avi\r\n      Format : AVI\r\n      Format/Info : Audio Video Interleave\r\n      Format profile : OpenDML\r\n      File size : 1.75 GiB\r\n      Duration : 2 h 41 min\r\n      Overall bit rate mode : Variable\r\n      Overall bit rate : 1 549 kb/s\r\n      Writing application : MEncoder sherpya-r37853+g6d7f566-5.3.1\r\n      Writing library : MPlayer\r\n   Video #0\r\n      ID : 0\r\n      Format : MPEG-4 Visual\r\n      Format profile : Advanced   \r\n      Format settings, BVOP : 2\r\n      Format settings, QPel : No\r\n      Format settings, GMC : No warppoints\r\n      Format settings, Matrix : Default (H.263)\r\n      Codec ID : XVID\r\n      Codec ID/Hint : XviD\r\n      Duration : 2 h 41 min\r\n      Bit rate : 1 407 kb/s\r\n      Width : 624 pixels\r\n      Height : 352 pixels\r\n      Display aspect ratio : 16:9\r\n      Original display aspect ratio : 16:9\r\n      Frame rate : 50.000 FPS\r\n      Color space : YUV\r\n      Chroma subsampling : 4:2:0\r\n      Bit depth : 8 bits\r\n      Scan type : Progressive\r\n      Compression mode : Lossy\r\n      Bits/(Pixel*Frame) : 0.128\r\n      Stream size : 1.59 GiB (91%)\r\n      Writing library : XviD 64\r\n   Audio #1\r\n      ID : 1\r\n      Format : MPEG Audio\r\n      Format version : Version 1\r\n      Format profile : Layer 3\r\n      Mode : Joint stereo\r\n      Mode extension : MS Stereo\r\n      Codec ID : 55\r\n      Codec ID/Hint : MP3\r\n      Duration : 2 h 41 min\r\n      Bit rate mode : Variable\r\n      Bit rate : 124 kb/s\r\n      Channel(s) : 2 channels\r\n      Sampling rate : 48.0 kHz\r\n      Compression mode : Lossy\r\n      Stream size : 144 MiB (8%)\r\n      Alignment : Aligned on interleaves\r\n      Interleave, duration : 24  ms (1.20 video frame)\r\n      Interleave, preload duration : 504  ms","torrent":{"xt":"urn:btih:ec6be5d49e951454553a367d826cd6dc64801dab","amp;dn":"TNA.One.Night.Only.September.2016.PDTV.XviD-FICEK9","amp;tr":["udp%3A%2F%2Ftracker.leechers-paradise.org%3A6969","udp%3A%2F%2Fzer0day.ch%3A1337","udp%3A%2F%2Fopen.demonii.com%3A1337","udp%3A%2F%2Ftracker.coppersurfer.tk%3A6969","udp%3A%2F%2Fexodus.desync.com%3A6969"],"infoHash":"ec6be5d49e951454553a367d826cd6dc64801dab","infoHashBuffer":{"type":"Buffer","data":[236,107,229,212,158,149,20,84,85,58,54,125,130,108,214,220,100,128,29,171]},"announce":[],"urlList":[]}}